<svg width="45" height="39" viewBox="0 0 45 39" fill="none" xmlns="http://www.w3.org/2000/svg">
<path d="M23.636 8.67399C23.6402 5.9158 23.2653 3.17012 22.522 0.513985C22.4849 0.380184 22.4089 0.260432 22.3036 0.169945C22.1983 0.0794574 22.0685 0.0223296 21.9306 0.00582133C21.7927 -0.0106869 21.6531 0.014167 21.5294 0.0772325C21.4057 0.140298 21.3036 0.238726 21.236 0.359993L10.561 18.85L0.0969803 36.975C0.0279265 37.0954 -0.00416364 37.2335 0.00475623 37.3721C0.0136761 37.5106 0.0631926 37.6435 0.147121 37.7541C0.231049 37.8646 0.345677 37.9481 0.476711 37.9939C0.607745 38.0398 0.749391 38.0461 0.883968 38.012C7.39113 36.3342 13.1566 32.5423 17.2748 27.232C21.393 21.9218 23.6305 15.394 23.636 8.67399Z" fill="#00A3D4"/>
<path d="M12.075 37.494C11.9516 37.5796 11.8587 37.7024 11.8099 37.8444C11.761 37.9864 11.7588 38.1403 11.8034 38.2837C11.848 38.4271 11.9371 38.5525 12.0579 38.6418C12.1787 38.7311 12.3248 38.7795 12.475 38.78H32.558C32.7081 38.7795 32.8542 38.7311 32.975 38.6418C33.0958 38.5525 33.185 38.4271 33.2296 38.2837C33.2742 38.1403 33.2719 37.9864 33.223 37.8444C33.1742 37.7024 33.0813 37.5796 32.958 37.494C29.8848 35.3805 26.2427 34.2491 22.5129 34.2491C18.7832 34.2491 15.1411 35.3805 12.0679 37.494" fill="#00A3D4"/>
<path d="M28.875 10.67C28.805 10.5471 28.7 10.4478 28.5733 10.3849C28.4466 10.322 28.304 10.2984 28.1638 10.3169C28.0236 10.3355 27.8921 10.3955 27.7861 10.4892C27.6802 10.5829 27.6046 10.7061 27.569 10.843C26.0538 16.5457 26.8598 22.6165 29.8105 27.7264C32.7613 32.8362 37.6164 36.5688 43.313 38.107C43.4477 38.1413 43.5894 38.1353 43.7206 38.0895C43.8519 38.0437 43.9667 37.9603 44.0508 37.8497C44.1348 37.739 44.1844 37.6061 44.1934 37.4674C44.2023 37.3287 44.1702 37.1905 44.101 37.07L33.579 18.849L28.875 10.67Z" fill="#00A3D4"/>
</svg>
