<svg id="Logo" xmlns="http://www.w3.org/2000/svg" width="218.917" height="38.78" viewBox="0 0 218.917 38.78">
  <g id="Groupe_1" data-name="Groupe 1" transform="translate(-256.564 -135.906)">
    <rect id="Rectangle_1" data-name="Rectangle 1" width="3.821" height="22.291" transform="translate(331.538 151.568)" fill="#42464d"/>
  </g>
  <g id="Groupe_2" data-name="Groupe 2" transform="translate(-256.564 -135.906)">
    <path id="Tracé_1" data-name="Tracé 1" d="M280.2,144.58a30.107,30.107,0,0,0-1.114-8.16.7.7,0,0,0-1.286-.154l-10.675,18.49-10.464,18.125a.707.707,0,0,0,.787,1.037A30.323,30.323,0,0,0,280.2,144.58" fill="#00a3d4"/>
  </g>
  <g id="Groupe_3" data-name="Groupe 3" transform="translate(-256.564 -135.906)">
    <path id="Tracé_2" data-name="Tracé 2" d="M268.639,173.4a.706.706,0,0,0,.4,1.286h20.083a.706.706,0,0,0,.4-1.286,18.433,18.433,0,0,0-20.89,0" fill="#00a3d4"/>
  </g>
  <g id="Groupe_4" data-name="Groupe 4" transform="translate(-256.564 -135.906)">
    <path id="Tracé_3" data-name="Tracé 3" d="M285.439,146.576a.711.711,0,0,0-1.306.173,22.307,22.307,0,0,0,15.744,27.264.707.707,0,0,0,.788-1.037l-10.522-18.221Z" fill="#00a3d4"/>
  </g>
  <g id="Groupe_5" data-name="Groupe 5" transform="translate(-256.564 -135.906)">
    <path id="Tracé_4" data-name="Tracé 4" d="M361.279,167.12l-.115.23c-1.306,2.439-4.263,3.879-7.93,3.879-6.009,0-9.619-3.168-9.619-8.487,0-5.337,3.59-8.544,9.619-8.544,3.591,0,6.528,1.4,7.853,3.764l.134.23,3.725-1.862-.192-.269c-2.515-3.591-6.3-5.338-11.558-5.338-8.3,0-13.44,4.608-13.44,12,0,7.373,5.145,11.962,13.44,11.962,5.491,0,9.312-1.843,11.673-5.626l.173-.269Z" fill="#42464d"/>
  </g>
  <g id="Groupe_6" data-name="Groupe 6" transform="translate(-256.564 -135.906)">
    <path id="Tracé_5" data-name="Tracé 5" d="M376.313,152.528h10.579v3.437H376.313V167.6c0,3.322,3.168,3.59,4.147,3.59a8.706,8.706,0,0,0,4.455-1.44l.268-.153,1.4,2.841-.192.135a11.293,11.293,0,0,1-6.47,2.093c-4.512,0-7.412-2.592-7.412-6.586V155.965h-4.377v-3.437h4.4v-1.8h3.82v1.8Z" fill="#42464d"/>
  </g>
  <g id="Groupe_7" data-name="Groupe 7" transform="translate(-256.564 -135.906)">
    <path id="Tracé_6" data-name="Tracé 6" d="M393.728,160.42c.883-4.032,4.243-6.336,9.273-6.336,4.858,0,8.026,2.246,8.986,6.336Zm9.235-9.7c-8.218,0-13.325,4.608-13.325,12,0,7.488,5.05,11.962,13.517,11.962,5.165,0,8.832-1.248,11.9-4.013l.211-.192-2.534-2.688-.211.192c-2.573,2.419-5.165,3.36-9.216,3.36-5.818,0-9.37-2.784-9.792-7.661h22.252l.058-.211a3.343,3.343,0,0,0,.1-.787c0-7.488-4.858-11.962-12.96-11.962" fill="#42464d"/>
  </g>
  <g id="Groupe_8" data-name="Groupe 8" transform="translate(-256.564 -135.906)">
    <path id="Tracé_7" data-name="Tracé 7" d="M443.052,162.724c0,5.318-3.59,8.486-9.619,8.486-6.01,0-9.619-3.168-9.619-8.486,0-5.338,3.59-8.544,9.619-8.544,6.029.019,9.619,3.206,9.619,8.544m-9.619-12c-8.314,0-13.478,4.608-13.478,12,0,7.373,5.164,11.962,13.478,11.962s13.478-4.589,13.478-11.962c0-7.392-5.164-12-13.478-12" fill="#42464d"/>
  </g>
  <g id="Groupe_9" data-name="Groupe 9" transform="translate(-256.564 -135.906)">
    <path id="Tracé_8" data-name="Tracé 8" d="M465.247,150.762a12.179,12.179,0,0,0-10.08,4.685v-3.879h-3.84V173.86h3.821V160.016a9.969,9.969,0,0,1,9.446-5.76c4.685,0,7.066,2.458,7.066,7.3V173.86h3.821V161.3c0-6.6-3.821-10.541-10.234-10.541" fill="#42464d"/>
  </g>
  <g id="Groupe_10" data-name="Groupe 10" transform="translate(-256.564 -135.906)">
    <path id="Tracé_9" data-name="Tracé 9" d="M331.5,162.724c0,5.318-3.59,8.486-9.619,8.486s-9.619-3.168-9.619-8.486c0-5.338,3.59-8.544,9.619-8.544s9.619,3.206,9.619,8.544m-9.619-12c-8.314,0-13.478,4.608-13.478,12,0,7.373,5.164,11.962,13.478,11.962s13.478-4.57,13.478-11.962-5.164-12-13.478-12" fill="#42464d"/>
  </g>
</svg>
