<?xml version="1.0" encoding="UTF-8" standalone="no"?>
<!-- Created with Inkscape (http://www.inkscape.org/) -->

<svg
   width="85.545769mm"
   height="27.797829mm"
   viewBox="0 0 85.545769 27.797829"
   version="1.1"
   id="svg5"
   inkscape:version="1.1.1 (3bf5ae0d25, 2021-09-20)"
   sodipodi:docname="Logo Colas Rail 2018.svg"
   xmlns:inkscape="http://www.inkscape.org/namespaces/inkscape"
   xmlns:sodipodi="http://sodipodi.sourceforge.net/DTD/sodipodi-0.dtd"
   xmlns="http://www.w3.org/2000/svg"
   xmlns:svg="http://www.w3.org/2000/svg">
  <sodipodi:namedview
     id="namedview7"
     pagecolor="#ffffff"
     bordercolor="#999999"
     borderopacity="1"
     inkscape:pageshadow="0"
     inkscape:pageopacity="0"
     inkscape:pagecheckerboard="0"
     inkscape:document-units="mm"
     showgrid="false"
     fit-margin-top="0"
     fit-margin-left="0"
     fit-margin-right="0"
     fit-margin-bottom="0"
     inkscape:zoom="2.7865881"
     inkscape:cx="130.44626"
     inkscape:cy="60.647643"
     inkscape:window-width="1920"
     inkscape:window-height="986"
     inkscape:window-x="-11"
     inkscape:window-y="1609"
     inkscape:window-maximized="1"
     inkscape:current-layer="layer1" />
  <defs
     id="defs2" />
  <g
     inkscape:label="Calque 1"
     inkscape:groupmode="layer"
     id="layer1"
     transform="translate(-103.48118,-51.093917)">
    <g
       id="g2500">
      <path
         d="M 181.24898,64.622944 146.82845,51.26713 c -0.28786,-0.111477 -0.67133,-0.173213 -1.07985,-0.173213 -0.40816,0 -0.79128,0.06103 -1.07879,0.172155 l -0.83009,0.321733 c 0,0 32.93569,12.781845 33.26412,12.908845 0.24836,0.09737 0.40287,0.306211 0.40287,0.545394 3.6e-4,0.240594 -0.15451,0.451203 -0.40322,0.548217 l -33.1209,12.791016 0.86255,0.335844 c 0.28857,0.112537 0.6731,0.174625 1.08267,0.174625 0.40711,0 0.78917,-0.06174 1.07527,-0.172508 l 34.24625,-13.225286 c 0.26035,-0.100541 0.40993,-0.25788 0.41064,-0.432152 7e-4,-0.175684 -0.14923,-0.335492 -0.41099,-0.438856"
         style="fill:#ffed00;fill-opacity:1;fill-rule:nonzero;stroke:none;stroke-width:0.352778"
         id="path948" />
      <path
         d="M 188.61632,64.657339 154.41099,51.38725 c -0.28822,-0.111477 -0.67204,-0.173213 -1.08056,-0.173213 -0.40781,0 -0.79058,0.06138 -1.0788,0.172508 l -0.82973,0.321733 c 0,0 32.72085,12.695767 33.04893,12.822767 0.24871,0.09737 0.40322,0.306211 0.40322,0.545394 3.6e-4,0.240594 -0.15451,0.451203 -0.40322,0.548217 l -32.70956,12.635794 0.86255,0.33655 c 0.28821,0.112183 0.67274,0.173919 1.08232,0.173919 0.40746,0 0.78916,-0.06138 1.07526,-0.171803 l 33.83527,-13.070769 c 0.26035,-0.100541 0.40993,-0.25788 0.41028,-0.432152 0.001,-0.175684 -0.14887,-0.335492 -0.41063,-0.438856"
         style="fill:#ffed00;fill-opacity:1;fill-rule:nonzero;stroke:none;stroke-width:0.352778"
         id="path952" />
      <path
         d="M 173.87479,64.638748 139.98484,51.433571 c -0.3048,-0.118887 -0.71049,-0.175684 -1.11231,-0.171803 v 3.53e-4 c -0.40499,-0.0056 -0.81456,0.05045 -1.12218,0.169686 l -33.87549,13.106399 c -0.52211,0.201789 -0.52634,0.611011 -0.004,0.812095 l 33.88959,13.205883 c 0.3048,0.118886 0.7105,0.17533 1.11231,0.17145 v -3.53e-4 c 0.40499,0.0056 0.81457,-0.05009 1.12219,-0.169686 l 33.87584,-13.1064 c 0.52211,-0.202141 0.52599,-0.611011 0.004,-0.812447"
         style="fill:#ffed00;fill-opacity:1;fill-rule:nonzero;stroke:none;stroke-width:0.352778"
         id="path956" />
      <path
         d="m 119.36495,64.813126 c 0,-1.562806 1.01318,-2.450042 2.3114,-2.450042 0.768,0 1.41711,0.264584 1.8609,0.893586 l -0.84137,0.741892 c -0.22507,-0.357717 -0.56939,-0.542925 -0.94686,-0.542925 -0.60254,0 -1.15887,0.357717 -1.15887,1.357489 0,0.993422 0.53657,1.364544 1.13912,1.364544 0.41063,0 0.72178,-0.232127 0.94015,-0.642761 l 0.9405,0.602545 c -0.44379,0.788458 -1.17228,1.139472 -1.94027,1.139472 -1.35749,0 -2.3047,-0.947208 -2.3047,-2.4638"
         style="fill:#000000;fill-opacity:1;fill-rule:nonzero;stroke:none;stroke-width:0.352778"
         id="path960" />
      <path
         d="m 123.92051,64.813126 c 0,-1.688747 1.16558,-2.450042 2.41053,-2.450042 1.24531,0 2.41088,0.761295 2.41088,2.450042 0,1.69545 -1.16557,2.450394 -2.41088,2.450394 -1.24495,0 -2.41053,-0.754944 -2.41053,-2.450394 m 3.59586,0 c 0,-0.999772 -0.58243,-1.357489 -1.18533,-1.357489 -0.59584,0 -1.18533,0.357717 -1.18533,1.357489 0,0.999772 0.58949,1.357842 1.18533,1.357842 0.6029,0 1.18533,-0.35807 1.18533,-1.357842"
         style="fill:#000000;fill-opacity:1;fill-rule:nonzero;stroke:none;stroke-width:0.352778"
         id="path964" />
      <path
         d="m 132.40982,66.071414 v 1.099256 h -2.89384 v -4.701823 h 1.18534 v 3.602567 z"
         style="fill:#000000;fill-opacity:1;fill-rule:nonzero;stroke:none;stroke-width:0.352778"
         id="path968" />
      <path
         d="m 136.41572,67.170669 -0.3048,-0.821267 h -1.33738 l 0.31115,-0.900641 h 0.68862 l -0.60254,-1.60902 -1.2185,3.330928 h -1.2386 l 1.92052,-4.701822 h 1.15253 l 1.88736,4.701822 z"
         style="fill:#000000;fill-opacity:1;fill-rule:nonzero;stroke:none;stroke-width:0.352778"
         id="path972" />
      <path
         d="m 137.91164,66.548158 0.73519,-0.867481 c 0.37747,0.36442 0.72848,0.496712 1.11266,0.496712 0.35101,0 0.64876,-0.139348 0.64876,-0.390878 0,-0.251531 -0.22507,-0.377472 -0.99307,-0.536222 -0.68227,-0.14605 -1.29152,-0.377473 -1.29152,-1.397353 0,-0.834672 0.69532,-1.490133 1.83444,-1.490133 0.7747,0 1.29787,0.284691 1.669,0.595841 l -0.68898,0.900995 c -0.25823,-0.265289 -0.55598,-0.397581 -0.98002,-0.397581 -0.39087,0 -0.629,0.132292 -0.629,0.36442 0,0.24518 0.21837,0.331258 0.7814,0.450144 0.72849,0.1524 1.48978,0.351014 1.48978,1.430514 0,0.9271 -0.70837,1.569508 -1.86725,1.569508 -0.90734,0 -1.45027,-0.337608 -1.82139,-0.728486"
         style="fill:#000000;fill-opacity:1;fill-rule:nonzero;stroke:none;stroke-width:0.352778"
         id="path984" />
      <path
         d="m 147.91053,67.170669 h -1.49013 l -1.01318,-1.642533 h -0.22507 v 1.642533 h -1.18534 v -4.701822 h 1.87396 c 1.13242,0 1.87431,0.543278 1.87431,1.522942 0,0.728838 -0.39088,1.185333 -1.05975,1.397352 z m -2.1523,-2.596092 c 0.50342,0 0.7613,-0.145697 0.7613,-0.56268 0,-0.364067 -0.23142,-0.496711 -0.69533,-0.496711 h -0.64205 v 1.059391 z"
         style="fill:#000000;fill-opacity:1;fill-rule:nonzero;stroke:none;stroke-width:0.352778"
         id="path988" />
      <path
         d="m 151.70455,67.170669 -0.3048,-0.821267 h -1.33773 l 0.3115,-0.900641 h 0.68862 l -0.60254,-1.60902 -1.21885,3.330928 h -1.23825 l 1.92052,-4.701822 h 1.15217 l 1.88737,4.701822 z"
         style="fill:#000000;fill-opacity:1;fill-rule:nonzero;stroke:none;stroke-width:0.352778"
         id="path992" />
      <path
         d="m 153.538,62.468741 h 1.18534 v 4.701822 H 153.538 Z"
         style="fill:#000000;fill-opacity:1;fill-rule:nonzero;stroke:none;stroke-width:0.352778"
         id="path994" />
      <path
         d="m 158.56417,66.071414 v 1.099256 h -2.89384 v -4.701823 h 1.18534 v 3.602567 z"
         style="fill:#000000;fill-opacity:1;fill-rule:nonzero;stroke:none;stroke-width:0.352778"
         id="path998" />
    </g>
  </g>
</svg>
