<svg id="blason_seul" data-name="blason seul" xmlns="http://www.w3.org/2000/svg" width="35.329" height="52.685" viewBox="0 0 35.329 52.685">
  <path id="Tracé_6" data-name="Tracé 6" d="M71.457,32.659V13.983H48.5l4.653,1.659v1.714c0,.815-.021,2.552-.021,3.929,0,.689,0,1.289.021,1.631.1,2.451.522,2.883,4.137,2.918a8.8,8.8,0,0,0,3.276-.422c.885-.422,1.282-1.118,1.534-2.583.056-.386.175-.629.486-.621a.336.336,0,0,1,.343.261,1.763,1.763,0,0,1,.042.487,28.871,28.871,0,0,1-.465,4.01c-.216.888-.607,1.01-1.659,1.01H60.5c-5.331,0-7.7-.217-9.78-.217-.808,0-3.034.109-4.454.109-.455,0-.8-.114-.8-.464,0-.259.244-.388.665-.388a5.653,5.653,0,0,0,1.253-.139c.619-.121.8-.844.942-1.889.178-1.494.178-4.334.178-7.634V13.983H36.13V32.659a1.079,1.079,0,0,0,.5,1.059l16.439,9.915v0a1.173,1.173,0,0,0,1.446,0v0l16.444-9.915a1.078,1.078,0,0,0,.5-1.059" transform="translate(-36.13 8.804)" fill="#fff"/>
  <path id="Tracé_7" data-name="Tracé 7" d="M70.841,0h-34.1a.615.615,0,0,0-.612.622V20.748H48.5v-.906c0-5.456,0-6.463-.069-7.6-.088-1.216-.309-1.7-1.444-1.955a7.245,7.245,0,0,0-1.354-.1c-.383,0-.694-.085-.7-.425.014-.357.361-.425.877-.425,1.877,0,4.1.109,5.087.109,1.127,0,8.166,0,8.82-.036a14.782,14.782,0,0,0,1.508-.213,3.257,3.257,0,0,1,.583-.147c.261,0,.314.251.314.425,0,.292-.175.688-.282,2.342-.038.355-.1,1.931-.179,2.377-.03.181-.125.477-.449.477s-.418-.282-.418-.6a3.812,3.812,0,0,0-.207-1.255c-.247-.616-.522-1-2.281-1.23-.59-.068-4.308-.14-5.005-.14-.12.013-.13.013-.152.259v9.053H71.458V.622A.619.619,0,0,0,70.841,0" transform="translate(-36.13 0)" fill="#fff"/>
</svg>
