<svg width="475" height="189" viewBox="0 0 475 189" fill="none" xmlns="http://www.w3.org/2000/svg">
<path d="M0.12207 114.366H13.5541L35.5411 144.954L58.3781 114.366H71.2341V186.997H57.6881V136.076L35.4021 166.159L13.6231 136.583V186.997H0.12207V114.366Z" fill="white"/>
<path d="M91.8411 151.395H124.868C122.867 143.667 116.91 139.388 108.585 139.388C100.49 139.388 94.2341 144.312 91.8411 151.395ZM78.3181 157.973C78.3181 140.998 91.5431 127.615 108.585 127.615C125.88 127.615 138.483 140.309 138.483 157.513V162.618H91.1281C92.9221 170.805 99.5231 176.324 109.045 176.324C116.543 176.324 122.384 172.323 125.168 166.159L136.23 172.462C131.147 181.798 121.948 188.191 109.045 188.191C90.7381 188.191 78.3181 174.899 78.3181 157.973Z" fill="white"/>
<path d="M145.499 128.854H158.815V135.571C162.449 130.649 168.245 127.614 175.398 127.614C184.436 127.614 190.83 131.43 194.303 137.594C198.282 131.615 205.158 127.614 213.391 127.614C229.031 127.614 237.08 136.95 237.08 151.946V186.997H223.35V153.051C223.35 144.632 218.957 139.252 210.724 139.252C203.456 139.252 197.891 144.312 197.891 154.522V186.998H184.275V152.684C184.275 144.404 180.089 139.253 172.04 139.253C164.45 139.253 158.908 144.403 158.908 154.8V186.998H145.5V128.854H145.499Z" fill="white"/>
<path d="M293.427 157.695C293.427 147.668 285.723 139.801 275.901 139.801C265.944 139.801 258.584 147.943 258.584 157.695C258.584 167.769 265.944 175.864 275.901 175.864C285.723 175.864 293.427 167.862 293.427 157.695ZM259.09 179.453V186.997H245.773V113.354H259.183V136.214C263.276 130.97 270.221 127.613 277.996 127.613C292.599 127.613 306.653 138.697 306.653 157.925C306.653 176.967 292.209 188.191 278.225 188.191C270.336 188.191 263.275 184.88 259.09 179.453Z" fill="white"/>
<path d="M325.327 151.395H358.398C356.397 143.667 350.441 139.388 342.07 139.388C333.998 139.388 327.718 144.312 325.327 151.395ZM311.827 157.973C311.827 140.998 325.051 127.615 342.07 127.615C359.364 127.615 372.013 140.309 372.013 157.513V162.618H324.636C326.431 170.805 333.054 176.324 342.552 176.324C349.981 176.324 355.891 172.323 358.674 166.159L369.715 172.462C364.653 181.798 355.476 188.191 342.552 188.191C324.269 188.191 311.827 174.899 311.827 157.973Z" fill="white"/>
<path d="M378.961 128.854H392.3V137.457C395.014 131.661 399.844 128.854 407.227 128.854C411.413 128.854 414.862 129.822 417.461 131.339L412.4 144.034C410.398 142.745 408.121 141.733 404.327 141.733C396.623 141.733 392.437 145.919 392.437 155.993V186.996H378.96V128.854H378.961Z" fill="white"/>
<path d="M418.38 174.071L430.8 168.047C433.605 173.472 438.596 176.509 444.852 176.509C451.406 176.509 454.788 173.289 454.788 169.471C454.788 165.285 448.325 164.274 441.149 162.803C431.145 160.824 420.749 157.513 420.749 145.322C420.749 135.939 429.696 127.43 443.634 127.568C455.18 127.568 462.93 132.168 467.414 139.528L455.961 145.322C453.569 141.23 449.246 138.699 443.634 138.699C437.264 138.699 434.297 141.596 434.297 144.955C434.297 148.865 438.965 149.785 447.612 151.671C457.179 153.649 468.104 157.007 468.104 169.196C468.104 177.338 460.86 188.286 444.231 188.192C431.49 188.191 423.07 183.271 418.38 174.071Z" fill="white"/>
<path d="M450.602 32.823V42.713H457.57V52.556C457.57 53.476 457.524 54.396 457.41 55.109C457.135 56.971 455.362 60.0539 450.442 60.0539C445.519 60.0539 443.839 56.971 443.542 55.109C443.404 54.396 443.359 53.476 443.359 52.556V21.554C443.359 20.473 443.404 19.232 443.679 18.334C444.001 16.724 445.472 13.4129 450.396 13.4129C455.592 13.4129 456.88 16.908 457.179 18.334C457.34 19.277 457.409 20.979 457.409 20.979V24.774H474.475V22.4969C474.475 22.4969 474.566 20.1969 474.335 17.9669C473.071 5.27195 462.583 1.29196 450.53 1.29196C438.503 1.29196 428.246 5.33995 426.75 17.9669C426.565 19.1859 426.383 21.2789 426.383 22.4969V51.039C426.383 52.259 426.43 53.2469 426.681 55.5239C427.764 67.8749 438.503 72.29 450.531 72.29C462.584 72.29 473.257 67.8749 474.36 55.5239C474.566 53.2469 474.589 52.258 474.611 51.039V32.824H450.602V32.823ZM332.777 3.06296H315.643V53.2699C315.667 54.0979 315.643 55.11 315.483 55.892C315.138 57.524 313.689 60.836 308.997 60.836C304.26 60.836 302.834 57.524 302.512 55.892C302.327 55.11 302.305 54.0979 302.327 53.2699V3.06296H285.17V51.683C285.17 52.902 285.263 55.5239 285.355 56.2139C286.504 68.8859 296.534 73.027 308.998 73.027C321.487 73.027 331.423 68.8859 332.642 56.2139C332.734 55.5239 332.916 52.902 332.779 51.683V3.06296H332.777ZM175.121 3.06296L166.588 56.19L158.033 3.06296H130.342L128.893 70.8869H145.844L146.303 8.09996L157.987 70.8869H175.167L186.828 8.09996L187.31 70.8869H204.307L202.788 3.06296H175.121ZM72.638 3.06296L60.104 70.8869H78.411L87.91 8.09996L97.155 70.8869H115.37L102.813 3.06296H72.638ZM392.782 57.708L376.821 3.06195H351.615V70.2189H368.288L367.276 13.895L384.456 70.2189H408.63V3.06195H391.839L392.782 57.708ZM238.714 20.726C238.414 19.415 238.505 17.9429 238.667 17.2299C239.149 15.045 240.576 12.699 244.808 12.699C248.718 12.699 250.995 15.137 250.995 18.817C250.995 20.059 250.995 22.957 250.995 22.957H267.76V18.243C267.76 3.63895 254.629 1.31595 245.154 1.31595C233.195 1.31595 223.443 5.27195 221.673 16.312C221.19 19.233 221.097 21.9 221.834 25.304C224.731 38.988 248.581 42.99 252.055 51.661C252.652 53.271 252.514 55.3869 252.193 56.6279C251.664 58.9279 250.145 61.159 245.639 61.159C241.452 61.159 238.852 58.7209 238.852 55.0639V48.5549H220.868V53.73C220.868 68.703 232.62 73.303 245.292 73.303C257.391 73.303 267.416 69.1159 269.004 57.8469C269.764 52.1439 269.211 48.349 268.89 46.877C266.104 32.823 240.598 28.592 238.714 20.726ZM18.062 20.588C17.763 19.185 17.809 17.759 18.016 17C18.453 14.885 19.925 12.423 24.226 12.423C28.158 12.423 30.504 14.9289 30.504 18.6329C30.504 19.8519 30.504 22.796 30.504 22.796H47.455V18.035C47.455 3.31496 34.138 0.92395 24.571 0.92395C12.496 0.92395 2.65303 4.87996 0.836029 15.988C0.330029 18.978 0.23803 21.691 0.97403 25.118C3.89503 38.986 28.021 42.988 31.539 51.82C32.183 53.476 31.999 55.5229 31.654 56.7869C31.102 59.1099 29.584 61.433 25.03 61.433C20.798 61.433 18.268 58.949 18.268 55.246L18.223 48.6449H0.0300293V53.866C0.0300293 68.999 11.943 73.599 24.708 73.599C36.989 73.599 47.017 69.482 48.673 58.052C49.478 52.21 48.857 48.438 48.581 46.966C45.752 32.731 19.993 28.522 18.062 20.588Z" fill="white"/>
</svg>
