<?xml version="1.0" encoding="utf-8"?>
<!-- Generator: Adobe Illustrator 16.2.0, SVG Export Plug-In . SVG Version: 6.00 Build 0)  -->
<!DOCTYPE svg PUBLIC "-//W3C//DTD SVG 1.1//EN" "http://www.w3.org/Graphics/SVG/1.1/DTD/svg11.dtd">
<svg version="1.1" id="Layer_1" xmlns="http://www.w3.org/2000/svg" xmlns:xlink="http://www.w3.org/1999/xlink" x="0px" y="0px"
	 width="600px" height="600px" viewBox="0 0 600 600" enable-background="new 0 0 600 600" xml:space="preserve">
<g>
	<path d="M587.268,349.558c0,121.067-98.16,219.227-219.226,219.227H233.429c-121.089,0-219.225-98.159-219.225-219.227v-92.328
		c0-121.066,98.136-219.225,219.225-219.225h134.613c121.065,0,219.226,98.159,219.226,219.225V349.558z"/>
	<g>
		<polygon fill="#FFFFFF" points="63.122,329.366 76.554,329.366 98.541,359.954 121.378,329.366 134.234,329.366 134.234,401.997 
			120.688,401.997 120.688,351.076 98.402,381.159 76.623,351.583 76.623,401.997 63.122,401.997 63.122,329.366 		"/>
		<path fill="#FFFFFF" d="M154.841,366.395h33.027c-2.001-7.728-7.958-12.007-16.283-12.007
			C163.49,354.388,157.234,359.312,154.841,366.395L154.841,366.395z M141.318,372.973c0-16.975,13.225-30.358,30.267-30.358
			c17.295,0,29.898,12.694,29.898,29.898v5.105h-47.355c1.794,8.187,8.395,13.706,17.917,13.706c7.498,0,13.339-4.001,16.123-10.165
			l11.062,6.303c-5.083,9.336-14.282,15.729-27.185,15.729C153.738,403.191,141.318,389.899,141.318,372.973L141.318,372.973z"/>
		<path fill="#FFFFFF" d="M208.499,343.854h13.316v6.717c3.634-4.922,9.43-7.957,16.583-7.957c9.038,0,15.432,3.816,18.905,9.98
			c3.979-5.979,10.855-9.98,19.088-9.98c15.64,0,23.689,9.336,23.689,24.332v35.051h-13.73v-33.946
			c0-8.419-4.393-13.799-12.626-13.799c-7.268,0-12.833,5.06-12.833,15.27v32.476h-13.616v-34.314
			c0-8.28-4.186-13.431-12.235-13.431c-7.59,0-13.132,5.15-13.132,15.547v32.198h-13.408V343.854L208.499,343.854z"/>
		<path fill="#FFFFFF" d="M356.427,372.695c0-10.027-7.704-17.894-17.526-17.894c-9.957,0-17.317,8.142-17.317,17.894
			c0,10.074,7.36,18.169,17.317,18.169C348.723,390.864,356.427,382.862,356.427,372.695L356.427,372.695z M322.09,394.453v7.544
			h-13.317v-73.643h13.41v22.86c4.093-5.244,11.038-8.601,18.813-8.601c14.603,0,28.657,11.084,28.657,30.312
			c0,19.042-14.444,30.266-28.428,30.266C333.336,403.191,326.275,399.88,322.09,394.453L322.09,394.453z"/>
		<path fill="#FFFFFF" d="M388.327,366.395h33.071c-2.001-7.728-7.957-12.007-16.328-12.007
			C396.998,354.388,390.718,359.312,388.327,366.395L388.327,366.395z M374.827,372.973c0-16.975,13.224-30.358,30.243-30.358
			c17.294,0,29.943,12.694,29.943,29.898v5.105h-47.377c1.795,8.187,8.418,13.706,17.916,13.706c7.429,0,13.339-4.001,16.122-10.165
			l11.041,6.303c-5.062,9.336-14.239,15.729-27.163,15.729C387.269,403.191,374.827,389.899,374.827,372.973L374.827,372.973z"/>
		<path fill="#FFFFFF" d="M441.961,343.854H455.3v8.603c2.714-5.796,7.544-8.603,14.927-8.603c4.186,0,7.635,0.968,10.234,2.485
			l-5.061,12.695c-2.002-1.289-4.279-2.301-8.073-2.301c-7.704,0-11.89,4.186-11.89,14.26v31.003h-13.477V343.854L441.961,343.854z"
			/>
		<path fill="#FFFFFF" d="M481.38,389.071l12.42-6.024c2.805,5.425,7.796,8.462,14.052,8.462c6.554,0,9.936-3.22,9.936-7.038
			c0-4.186-6.463-5.197-13.639-6.668c-10.004-1.979-20.4-5.29-20.4-17.481c0-9.383,8.947-17.892,22.885-17.754
			c11.546,0,19.296,4.6,23.78,11.96l-11.453,5.794c-2.392-4.092-6.715-6.623-12.327-6.623c-6.37,0-9.337,2.897-9.337,6.256
			c0,3.91,4.668,4.83,13.315,6.716c9.567,1.978,20.492,5.336,20.492,17.525c0,8.142-7.244,19.09-23.873,18.996
			C494.49,403.191,486.07,398.271,481.38,389.071L481.38,389.071z"/>
		<path fill="#FFFFFF" d="M513.602,247.823v9.89h6.968v9.843c0,0.92-0.046,1.84-0.16,2.553c-0.275,1.862-2.048,4.945-6.968,4.945
			c-4.923,0-6.603-3.083-6.9-4.945c-0.138-0.713-0.183-1.633-0.183-2.553v-31.002c0-1.081,0.045-2.322,0.32-3.22
			c0.322-1.61,1.793-4.921,6.717-4.921c5.196,0,6.484,3.495,6.783,4.921c0.161,0.943,0.23,2.645,0.23,2.645v3.795h17.066v-2.277
			c0,0,0.091-2.3-0.14-4.53c-1.264-12.695-11.752-16.675-23.805-16.675c-12.027,0-22.284,4.048-23.78,16.675
			c-0.185,1.219-0.367,3.312-0.367,4.53v28.542c0,1.22,0.047,2.208,0.298,4.485c1.083,12.351,11.822,16.766,23.85,16.766
			c12.053,0,22.726-4.415,23.829-16.766c0.206-2.277,0.229-3.266,0.251-4.485v-18.215H513.602L513.602,247.823z M395.777,218.063
			h-17.134v50.207c0.024,0.828,0,1.84-0.16,2.622c-0.345,1.632-1.794,4.944-6.486,4.944c-4.737,0-6.163-3.312-6.485-4.944
			c-0.185-0.782-0.207-1.794-0.185-2.622v-50.207H348.17v48.62c0,1.219,0.093,3.841,0.185,4.531
			c1.149,12.672,11.179,16.813,23.643,16.813c12.489,0,22.425-4.141,23.644-16.813c0.092-0.69,0.274-3.312,0.137-4.531V218.063
			L395.777,218.063z M238.121,218.063l-8.533,53.127l-8.555-53.127h-27.691l-1.449,67.824h16.951l0.459-62.787l11.684,62.787h17.18
			l11.661-62.787l0.482,62.787h16.997l-1.519-67.824H238.121L238.121,218.063z M135.638,218.063l-12.534,67.824h18.307l9.499-62.787
			l9.245,62.787h18.215l-12.557-67.824H135.638L135.638,218.063z M455.782,272.708l-15.961-54.646h-25.206v67.157h16.673
			l-1.012-56.324l17.18,56.324h24.174v-67.157h-16.791L455.782,272.708L455.782,272.708z M301.714,235.726
			c-0.3-1.311-0.209-2.783-0.047-3.496c0.482-2.185,1.909-4.531,6.141-4.531c3.91,0,6.187,2.438,6.187,6.118c0,1.242,0,4.14,0,4.14
			h16.765v-4.714c0-14.604-13.131-16.927-22.606-16.927c-11.959,0-21.711,3.956-23.481,14.996c-0.483,2.921-0.576,5.588,0.161,8.992
			c2.897,13.684,26.747,17.686,30.221,26.357c0.597,1.61,0.459,3.726,0.138,4.967c-0.529,2.3-2.048,4.531-6.554,4.531
			c-4.187,0-6.787-2.438-6.787-6.095v-6.509h-17.984v5.175c0,14.973,11.752,19.573,24.424,19.573
			c12.099,0,22.124-4.187,23.712-15.456c0.76-5.703,0.207-9.498-0.114-10.97C329.104,247.823,303.598,243.592,301.714,235.726
			L301.714,235.726z M81.062,235.588c-0.299-1.403-0.253-2.829-0.046-3.588c0.437-2.115,1.909-4.577,6.21-4.577
			c3.932,0,6.278,2.506,6.278,6.21c0,1.219,0,4.163,0,4.163h16.951v-4.761c0-14.72-13.317-17.111-22.884-17.111
			c-12.075,0-21.918,3.956-23.735,15.064c-0.506,2.99-0.598,5.703,0.138,9.13c2.921,13.868,27.047,17.87,30.565,26.702
			c0.644,1.656,0.46,3.703,0.115,4.967c-0.552,2.323-2.07,4.646-6.624,4.646c-4.232,0-6.762-2.484-6.762-6.187l-0.045-6.601H63.03
			v5.221c0,15.133,11.913,19.733,24.678,19.733c12.281,0,22.309-4.117,23.965-15.547c0.805-5.842,0.184-9.614-0.092-11.086
			C108.752,247.731,82.993,243.522,81.062,235.588L81.062,235.588z"/>
	</g>
</g>
</svg>
